<svg xmlns="http://www.w3.org/2000/svg" width="91.754" height="91.754" viewBox="0 0 91.754 91.754">
  <g id="checklist" transform="translate(-18.123 -18.123)">
    <path id="Exclusión_1" data-name="Exclusión 1" d="M-167-381.123a45.589,45.589,0,0,1-17.857-3.605,45.723,45.723,0,0,1-14.582-9.832,45.723,45.723,0,0,1-9.832-14.582A45.589,45.589,0,0,1-212.877-427a45.591,45.591,0,0,1,3.605-17.858,45.724,45.724,0,0,1,9.832-14.583,45.723,45.723,0,0,1,14.582-9.832A45.589,45.589,0,0,1-167-472.877a45.591,45.591,0,0,1,17.858,3.605,45.724,45.724,0,0,1,14.583,9.832,45.724,45.724,0,0,1,9.832,14.583A45.591,45.591,0,0,1-121.123-427a45.589,45.589,0,0,1-3.605,17.857,45.723,45.723,0,0,1-9.832,14.582,45.723,45.723,0,0,1-14.583,9.832A45.591,45.591,0,0,1-167-381.123Zm0-83.671A37.837,37.837,0,0,0-204.794-427,37.837,37.837,0,0,0-167-389.206,37.837,37.837,0,0,0-129.206-427,37.837,37.837,0,0,0-167-464.794Z" transform="translate(231 491)" fill="#35355a"/>
    <path id="Trazado_1" data-name="Trazado 1" d="M59.524,81.447a4.474,4.474,0,0,1-3.213-1.36L41.764,65.1a4.476,4.476,0,1,1,6.424-6.234L59.411,70.428l20.3-22.4a4.477,4.477,0,1,1,6.636,6.01L62.847,79.98A4.481,4.481,0,0,1,59.6,81.447Z" fill="#35355a"/>
  </g>
</svg>
